<svg width="98" height="185" viewBox="0 0 98 185" fill="none" xmlns="http://www.w3.org/2000/svg"><path d="M62.664 114.496l.011.012.011.011c2.534 2.67 3.876 6.345 3.876 11.203 0 4.602-1.455 8.131-4.27 10.753-2.822 2.568-6.742 3.934-11.94 3.934-6.266 0-10.878-1.866-14.069-5.422-3.158-3.649-4.845-8.986-4.845-16.23v-1.5H1.5v1.5c0 13.141 3.562 23.848 10.822 31.963l.008.009c7.069 7.769 16.869 12.391 29.251 13.97V183.5h17.82v-18.889c11.19-1.378 20.162-5.361 26.784-12.048 6.905-6.971 10.315-16.028 10.315-27.03 0-5.857-.892-11.044-2.72-15.527a35.881 35.881 0 00-7.87-11.969c-3.409-3.506-7.568-6.6-12.458-9.294-4.859-2.74-11.04-5.62-18.528-8.644-7.356-2.996-12.166-5.847-14.669-8.488-2.42-2.554-3.69-5.984-3.69-10.45 0-4.87 1.317-8.469 3.772-11.003l.005-.005.006-.006c2.444-2.578 5.954-3.956 10.75-3.956 4.738 0 8.398 1.704 11.137 5.09l.008.011.01.01c2.783 3.317 4.309 8.52 4.309 15.882v1.5H96.5v-1.5c0-12.493-3.177-22.796-9.655-30.777-6.234-7.74-14.768-12.483-25.486-14.27V1.5H43.445v20.3c-10.79 1.334-19.598 5.358-26.317 12.142h0c-7.022 7.09-10.501 16.175-10.501 27.125 0 6.3.986 11.815 3.012 16.5l.004.008.003.008c2.067 4.63 4.914 8.681 8.537 12.143l.01.01.01.009c3.651 3.363 7.988 6.353 12.996 8.977l.007.004.007.004c4.97 2.54 10.864 5.103 17.674 7.689 6.694 2.543 11.217 5.262 13.777 8.077z" fill="#fff" stroke="#fff" stroke-width="3"/></svg>