<svg xmlns="http://www.w3.org/2000/svg" viewBox="0 0 512 512" width="512" height="512"><g data-name="Grinning Face With Sweat"><path d="M256 512c-68.28 0-132.5-24.9-180.828-70.109C26.7 396.543 0 336.208 0 272s26.7-124.543 75.172-169.891C123.5 56.9 187.72 32 256 32s132.5 24.9 180.828 70.109C485.3 147.457 512 207.792 512 272s-26.7 124.543-75.172 169.891C388.5 487.1 324.28 512 256 512z" fill="#ffcc80"/><path d="M436.828 102.109q-7.974-7.46-16.52-14.16A226.918 226.918 0 01432 160c0 64.208-26.7 124.543-75.172 169.891C308.5 375.1 244.28 400 176 400c-60.77 0-118.312-19.737-164.308-55.949 12.209 36.542 33.737 70.015 63.48 97.84C123.5 487.1 187.72 512 256 512s132.5-24.9 180.828-70.109C485.3 396.543 512 336.208 512 272s-26.7-124.543-75.172-169.891z" fill="#ffb74d"/><path d="M256 464c-79.4 0-144-64.6-144-144v-8a24.028 24.028 0 0124-24h240a24.028 24.028 0 0124 24v8c0 79.4-64.6 144-144 144z" fill="#e27484"/><path d="M192 272a8 8 0 01-8-8 24 24 0 00-48 0 8 8 0 01-16 0 40 40 0 0180 0 8 8 0 01-8 8zm192 0a8 8 0 01-8-8 24 24 0 00-48 0 8 8 0 01-16 0 40 40 0 0180 0 8 8 0 01-8 8z" fill="#424242"/><path d="M440 192a72.081 72.081 0 01-72-72c0-16.364 11.27-40.391 33.5-71.414 16.065-22.423 31.871-40.17 32.536-40.915L440 .991l5.967 6.68c.665.745 16.47 18.492 32.536 40.915C500.73 79.609 512 103.636 512 120a72.081 72.081 0 01-72 72z" fill="#2196f3"/><path d="M495.4 74.375a108.008 108.008 0 01-106.19 96.61A71.963 71.963 0 00512 120c0-11.5-5.573-26.789-16.6-45.625z" fill="#1e88e5"/><circle cx="424" cy="72" r="16" fill="#90caf9"/><circle cx="408" cy="120" r="24" fill="#90caf9"/><path d="M157.845 425.259a216.285 216.285 0 01242-115.931A24.033 24.033 0 00376 288H136a24.028 24.028 0 00-24 24v8a143.623 143.623 0 0045.845 105.259z" fill="#d8667c"/><circle cx="80" cy="280" r="24" fill="#ffe4c0"/><circle cx="432" cy="280" r="24" fill="#ffe4c0"/></g></svg>