<svg width="179" height="179" viewBox="0 0 179 179" fill="none" xmlns="http://www.w3.org/2000/svg"><path d="M92.911 177.969a80.358 80.358 0 01-20.982-2.844c-11.26-3.04-22.019-8.353-31.97-15.792-19.795-14.791-33.69-35.983-38.121-58.139-4.38-21.9.61-44.3 14.05-63.075C29.288 19.4 49.494 6.528 72.783 1.87c23.29-4.658 46.892-.546 66.461 11.578 19.628 12.16 32.849 30.919 37.229 52.819 4.432 22.157-.243 47.063-12.827 68.33-6.326 10.694-14.212 19.735-23.437 26.872-9.875 7.64-20.809 12.699-32.499 15.037a75.416 75.416 0 01-14.799 1.463z" fill="#FFCC80"/><path d="M176.473 66.267a78.873 78.873 0 00-15.079-33.004c0 .09.004.18.004.27 0 58.403-47.341 105.744-105.744 105.744a105.384 105.384 0 01-42.071-8.709 104.302 104.302 0 0026.375 28.767c9.953 7.437 20.71 12.75 31.97 15.792a80.36 80.36 0 0020.983 2.844c4.97.001 9.927-.489 14.799-1.463 11.689-2.338 22.623-7.398 32.499-15.038 9.225-7.137 17.111-16.178 23.437-26.872 12.583-21.27 17.259-46.175 12.827-68.331z" fill="#FFB74D"/><path d="M144.701 178.235h-24.888a8.574 8.574 0 01-5.809-2.258 8.286 8.286 0 01-2.695-6.09 8.283 8.283 0 01.598-3.106 8.678 8.678 0 01-3.468-1.934 8.29 8.29 0 01-2.696-6.091 8.3 8.3 0 01.477-2.783h-3.259a8.348 8.348 0 01-8.338-8.748 8.272 8.272 0 012.685-5.691 8.674 8.674 0 013.468-1.934 8.283 8.283 0 01-.588-3.506 8.282 8.282 0 012.686-5.691 8.59 8.59 0 015.809-2.257h20.811a11.13 11.13 0 01-1.485-5.332c-.004-.094-.004-.171-.004-.227a10.821 10.821 0 01.918-4.368 11.142 11.142 0 012.456-3.531 11.452 11.452 0 013.59-2.369 11.306 11.306 0 014.337-.869h5.395a33.384 33.384 0 0133.393 33.392 33.396 33.396 0 01-33.393 33.393zm-80.855 0H33.393A33.39 33.39 0 010 144.842a33.392 33.392 0 0133.393-33.392h10.96a11.31 11.31 0 014.338.869 11.46 11.46 0 013.59 2.369 11.122 11.122 0 012.455 3.531c.606 1.376.919 2.864.918 4.368v.192l-.003.017a11.142 11.142 0 01-1.485 5.35h20.81a8.591 8.591 0 015.81 2.257 8.275 8.275 0 012.097 9.197 8.679 8.679 0 013.468 1.934 8.276 8.276 0 012.696 6.091 8.349 8.349 0 01-8.348 8.348h-3.26a8.25 8.25 0 01.477 2.783c0 .118-.003.243-.007.389l-.003.011a8.276 8.276 0 01-2.686 5.691 8.674 8.674 0 01-3.468 1.934 8.293 8.293 0 01.588 3.495v.011a8.272 8.272 0 01-2.685 5.69 8.571 8.571 0 01-5.809 2.258z" fill="#F5F5F5"/><path d="M39.49 65.23a2.783 2.783 0 01-2.725-2.238 13.914 13.914 0 1127.287-5.457 2.783 2.783 0 11-5.458 1.091 8.349 8.349 0 00-16.372 3.275 2.786 2.786 0 01-2.731 3.328v.001zm65.488-13.097a2.78 2.78 0 01-2.726-2.238 13.917 13.917 0 0110.915-16.372 13.913 13.913 0 0116.372 10.915 2.783 2.783 0 11-5.457 1.09 8.36 8.36 0 00-3.545-5.341 8.35 8.35 0 00-11.61 2.322 8.362 8.362 0 00-1.217 6.294 2.792 2.792 0 01-.579 2.311 2.785 2.785 0 01-2.153 1.019z" fill="#424242"/><path d="M150.005 61.628a2.776 2.776 0 00-2.188-2.184 2.784 2.784 0 00-1.086.001 11.447 11.447 0 01-12.534-5.367 2.785 2.785 0 00-3.737-1.177 2.784 2.784 0 00-1.211 3.726 15.82 15.82 0 003.618 4.468c3.685 19.469-13.891 39.375-39.345 44.465-25.454 5.09-49.335-6.523-53.42-25.914a15.826 15.826 0 001.62-5.515 2.783 2.783 0 10-5.547-.468c-.03.33-.864 8.066-9.506 9.795a2.782 2.782 0 101.091 5.457 17.662 17.662 0 008.105-3.813c3.184 9.004 10.136 16.506 19.99 21.433 7.665 3.832 16.483 5.795 25.658 5.795a66.849 66.849 0 0013.1-1.313c13.723-2.744 25.817-9.508 34.053-19.045 7.2-8.337 10.733-17.936 10.209-27.471 1.661.528 3.394.794 5.136.79a19.434 19.434 0 003.812-.388 2.782 2.782 0 002.182-3.275z" fill="#EF5350"/><path d="M139.136 142.06a2.79 2.79 0 01-2.783 2.782H95.099a8.327 8.327 0 012.21-3.308 8.674 8.674 0 013.467-1.934 14.16 14.16 0 01-.122-.323h35.699a2.786 2.786 0 012.783 2.783zm13.914-16.697a2.787 2.787 0 01-2.783 2.783h-20.773a11.13 11.13 0 01-1.485-5.332c-.004-.094-.004-.171-.004-.227v-.006h22.262a2.785 2.785 0 012.783 2.782zm-97.396-2.782v.198l-.003.017a11.143 11.143 0 01-1.485 5.35H33.393a2.782 2.782 0 110-5.565h22.261zm83.482 36.175a2.786 2.786 0 01-2.783 2.783h-30.119a8.067 8.067 0 01-.491-2.783 8.3 8.3 0 01.477-2.783h30.133a2.79 2.79 0 012.783 2.783zm0 11.131a2.788 2.788 0 01-2.783 2.782h-24.554a8.125 8.125 0 01-.49-2.782 8.27 8.27 0 01.476-2.783h24.568a2.79 2.79 0 012.783 2.783zM88.56 144.842H44.523a2.782 2.782 0 110-5.565h38.482c-.038.108-.08.215-.122.323a8.68 8.68 0 013.468 1.934 8.328 8.328 0 012.209 3.308zm-10.644 13.914c0 .118-.003.243-.007.389l-.003.011a8.063 8.063 0 01-.477 2.383H44.523a2.786 2.786 0 01-2.782-2.783 2.784 2.784 0 012.782-2.783H77.44a8.25 8.25 0 01.477 2.783zm-5.566 11.131c0 .128-.003.254-.01.389v.011a8.057 8.057 0 01-.476 2.382h-27.34a2.782 2.782 0 110-5.565h27.35c.317.893.478 1.835.477 2.783z" fill="#CFCFCF"/><path d="M175.468 131.843a33.21 33.21 0 00-7.155-10.612 33.332 33.332 0 00-2.425-2.202 51.55 51.55 0 01-33.674 59.206h12.487a33.407 33.407 0 0033.248-30.298 33.42 33.42 0 00-2.481-16.094zm-172.842 0a33.201 33.201 0 017.155-10.612 33.446 33.446 0 012.425-2.202 51.552 51.552 0 0033.674 59.206H33.393A33.406 33.406 0 01.145 147.937a33.411 33.411 0 012.481-16.094z" fill="#E5E5E5"/><path d="M22.262 78.057a8.348 8.348 0 100-16.696 8.348 8.348 0 000 16.696zm122.439-25.044a8.349 8.349 0 100-16.698 8.349 8.349 0 000 16.698z" fill="#FFE4C0"/></svg>