<svg width="179" height="179" viewBox="0 0 179 179" fill="none" xmlns="http://www.w3.org/2000/svg"><path d="M89.047 161.398c-23.732 0-46.058-8.36-62.863-23.539C9.299 122.608 0 102.308 0 80.699c0-21.61 9.299-41.91 26.184-57.16C42.989 8.359 65.314 0 89.047 0c23.732 0 46.058 8.36 62.863 23.539 16.885 15.25 26.184 35.55 26.184 57.16 0 21.609-9.299 41.909-26.184 57.16-16.805 15.179-39.131 23.539-62.863 23.539z" fill="#FFCC80"/><path d="M151.91 23.539a87.508 87.508 0 00-6.452-5.293 74.006 74.006 0 014.809 26.277c0 21.61-9.299 41.91-26.184 57.161-16.805 15.179-39.13 23.538-62.863 23.538-20.81 0-40.538-6.429-56.411-18.246 4.356 11.505 11.588 22.043 21.375 30.883 16.805 15.179 39.13 23.539 62.863 23.539 23.732 0 46.058-8.36 62.863-23.539 16.885-15.251 26.184-35.551 26.184-57.16 0-21.61-9.299-41.91-26.184-57.16z" fill="#FFB74D"/><path d="M136.353 44.523c-12.895 0-24.92-.973-30.354-12.747A2.785 2.785 0 01109.488 28a2.784 2.784 0 011.565 1.445c3.712 8.043 11.432 9.514 25.3 9.514a2.784 2.784 0 110 5.566zm-94.613 0a2.783 2.783 0 010-5.565c13.869 0 21.59-1.471 25.301-9.514a2.783 2.783 0 015.054 2.332C66.66 43.55 54.636 44.523 41.74 44.523z" fill="#616161"/><path d="M69.568 61.22H41.741a2.783 2.783 0 010-5.566h27.827a2.783 2.783 0 110 5.566zm66.785 0h-27.827a2.784 2.784 0 01-1.968-4.75 2.784 2.784 0 011.968-.816h27.827a2.784 2.784 0 110 5.566z" fill="#424242"/><path d="M136.353 178.094h-27.827a13.915 13.915 0 01-9.838-23.752 13.915 13.915 0 019.838-4.075 2.786 2.786 0 002.783-2.783V61.22h22.261v86.264a2.79 2.79 0 002.783 2.783 13.913 13.913 0 110 27.827zm-66.785 0H41.741a13.915 13.915 0 010-27.827 2.785 2.785 0 002.782-2.783V61.22h22.262v86.264a2.786 2.786 0 002.783 2.783 13.915 13.915 0 010 27.827z" fill="#2196F3"/><path d="M102.961 94.612a2.784 2.784 0 01-2.783-2.782 8.36 8.36 0 00-8.348-8.348h-5.566a8.358 8.358 0 00-8.348 8.348 2.782 2.782 0 11-5.565 0 13.93 13.93 0 0113.913-13.914h5.566a13.931 13.931 0 0113.913 13.914 2.782 2.782 0 01-2.782 2.782z" fill="#EF5350"/><path d="M69.568 150.267a2.799 2.799 0 01-.492-.046 42.114 42.114 0 01-34.933 25.606 13.832 13.832 0 007.598 2.267h27.827a13.915 13.915 0 000-27.827zm66.785 0a2.806 2.806 0 01-.492-.046 42.111 42.111 0 01-13.923 17.637 42.11 42.11 0 01-21.01 7.969 13.83 13.83 0 007.598 2.267h27.827a13.916 13.916 0 009.839-23.752 13.917 13.917 0 00-9.839-4.075z" fill="#1E88E5"/><path d="M30.61 94.612a8.348 8.348 0 100-16.696 8.348 8.348 0 000 16.697zm116.874 0a8.348 8.348 0 008.348-8.348 8.348 8.348 0 10-16.696 0 8.348 8.348 0 008.348 8.349z" fill="#FFE4C0"/><path d="M41.74 166.963a5.565 5.565 0 100-11.131 5.565 5.565 0 000 11.131zm66.786 0a5.566 5.566 0 100-11.132 5.566 5.566 0 000 11.132z" fill="#90CAF9"/></svg>