<svg height="512" viewBox="0 0 512 512" width="512" xmlns="http://www.w3.org/2000/svg"><g data-name="Thinking Face"><path d="M272 512c-65.6 0-134.63-35.971-189.389-98.69C30.883 354.063 0 280.3 0 216 0 149.3 29.044 93.317 83.991 54.113 132.9 19.218 199.668 0 272 0c66.7 0 128.262 27.927 173.342 78.636C487.7 126.288 512 190.935 512 256s-24.3 129.712-66.658 177.364C400.262 484.073 338.7 512 272 512z" fill="#ffcc80"/><path d="M479.751 128.123C473.372 301.443 330.879 440 156 440a326.3 326.3 0 01-51.92-4.16C154.81 484.563 214.712 512 272 512c66.7 0 128.262-27.927 173.342-78.636C487.7 385.712 512 321.065 512 256a272.481 272.481 0 00-32.249-127.877z" fill="#ffb74d"/><path d="M111.92 512A111.846 111.846 0 010 400.08a131.083 131.083 0 0133.649-87.7l41.21-45.79A32.035 32.035 0 0198.63 256h.03a31.98 31.98 0 0128.59 46.29l-.141.27-17.679 29.36v-.01a7.872 7.872 0 00-1.14 4.06 8.215 8.215 0 002.279 5.61 7.774 7.774 0 005.741 2.42h136.83a26.948 26.948 0 0119.04 8.02 27.836 27.836 0 018.34 18.81c0 .34.01.67.01.91a29.108 29.108 0 01-7.62 19.45 26.25 26.25 0 01-19.27 8.81h-48.69v18.97A92.952 92.952 0 01111.92 512z" fill="#f5f5f5"/><path d="M88 472a143.31 143.31 0 01-76.158-21.777A111.822 111.822 0 00111.92 512a92.952 92.952 0 0093.03-93.03v-6.949A143.806 143.806 0 0188 472z" fill="#e5e5e5"/><circle cx="336" cy="148" fill="#616161" r="24"/><circle cx="328" cy="140" fill="#fff" r="8"/><circle cx="176" cy="128" fill="#616161" r="24"/><circle cx="168" cy="120" fill="#fff" r="8"/><path d="M204.95 400v16h-36.34a8 8 0 010-16zm-.9 32a90.644 90.644 0 01-3.73 16h-41.16a8 8 0 110-16zm-15.69 40a92.15 92.15 0 01-10.66 12.75c-1.12 1.12-2.25 2.2-3.42 3.25h-36.07a8 8 0 010-16z" fill="#cfcfcf"/><path d="M128 92a8 8 0 01-5.12-14.15c5.68-4.68 13.42-8.16 23.67-10.63a136.284 136.284 0 0158.9 0c10.239 2.47 17.989 5.95 23.67 10.63a8 8 0 01-10.24 12.3c-3.41-2.9-9.811-5.66-17.14-7.37A114.79 114.79 0 00176.03 80h-.06a114.881 114.881 0 00-25.72 2.78c-7.32 1.71-13.72 4.47-17.13 7.37A8.027 8.027 0 01128 92zm160 20a8 8 0 010-16c.02 0 .64 0 1.83-.01 1.09-.01 2.88-.04 5.2-.09 5.949-.14 11.94-.39 17.82-.73 12.94-.75 31.469-2.34 46.28-5.72 8.88-1.94 16.82-4.99 19.75-7.6a8 8 0 0110.24 12.3c-7.16 5.79-16.94 8.66-26.45 10.9a262.091 262.091 0 01-33.13 4.92c-20.75 1.91-39.41 2.02-41.471 2.03z" fill="#616161"/><path d="M264 256h-48a8 8 0 010-16h48a8 8 0 010 16z" fill="#ef5350"/><path d="M351.915 130.057c.051.641.085 1.288.085 1.943a23.983 23.983 0 01-39.915 17.943 24 24 0 1039.83-19.886zm-160-20c.051.641.085 1.288.085 1.943a23.983 23.983 0 01-39.915 17.943 24 24 0 1039.83-19.886z" fill="#424242"/><circle cx="104" cy="176" fill="#ffe4c0" r="24"/><circle cx="408" cy="176" fill="#ffe4c0" r="24"/></g></svg>